<svg xmlns="http://www.w3.org/2000/svg" xmlns:xlink="http://www.w3.org/1999/xlink" width="439" height="88" viewBox="0 0 439 88"><defs><clipPath id="b"><rect width="439" height="88"/></clipPath></defs><g id="a" clip-path="url(#b)"><text transform="translate(74 57)" font-size="37" font-family="CenturyGothic-Bold, Century Gothic" font-weight="700"><tspan x="0" y="0">EARTHCOUNTDOWN</tspan></text><path d="M23.351,1.928a20.78,20.78,0,1,0,20.78,20.78,20.78,20.78,0,0,0-20.78-20.78Zm0,38.963a18.122,18.122,0,0,1-7.193-1.479l9.463-10.645a1.3,1.3,0,0,0,.328-.863v-3.9a1.3,1.3,0,0,0-1.3-1.3c-4.586,0-9.424-4.767-9.472-4.815a1.3,1.3,0,0,0-.918-.38h-5.2a1.3,1.3,0,0,0-1.3,1.3V26.6a1.3,1.3,0,0,0,.718,1.162L12.961,30v7.626A18.194,18.194,0,0,1,6.919,14.916h4.743a1.3,1.3,0,0,0,.918-.38l5.2-5.2a1.3,1.3,0,0,0,.38-.918V5.28A18.234,18.234,0,0,1,31.317,6.36c-.168.142-.332.291-.489.448a7.794,7.794,0,0,0,5.5,13.3q.193,0,.386-.01a30.5,30.5,0,0,1-.341,15.112,1.3,1.3,0,0,0-.034.212,18.126,18.126,0,0,1-12.993,5.465Z" transform="translate(19.071 21.015)" fill="#1fa238"/><g transform="translate(19 20.301)"><path d="M50.087,26.543A23.543,23.543,0,1,1,26.543,3,23.543,23.543,0,0,1,50.087,26.543Z" transform="translate(-3 -3)" fill="none" stroke="#000" stroke-linecap="round" stroke-linejoin="round" stroke-width="3"/><path d="M18,9V23.126l9.417,4.709" transform="translate(5.543 0.417)" fill="none" stroke="#000" stroke-linecap="round" stroke-linejoin="round" stroke-width="3"/></g></g></svg>